# xmcd
#
# Track frame offsets: 
#        150
#        20331
#        40176
#        55270
#        79036
#        99064
#        113404
#        132497
#        162937
#        181040
#        205779
#        232483
#        249376
#        276218
#        290050
#        302933
#        320301
#        340734
#
# Disc length: 4724 seconds
#
# Revision: 1
# Processed by: cddbd v1.5.2PL0 Copyright (c) Steve Scherf et al.
# Submitted via: ExactAudioCopy v1.0b3
#
DISCID=f5127212
DTITLE=Various Artist - Kuschel Lounge Vol 2 CD2
DYEAR=2013
DGENRE=Slow Rock
TTITLE0=Grace Jones - I've Seen That Face Before (Libertango)
TTITLE1=Blank and Jones - Coming Home
TTITLE2=Laith Al Deen - Alles an Dir (Chill in Mix)
TTITLE3=Dido - Here With Me (Rollo's Chillin' With The Family Mix)
TTITLE4=Sade - The Moon and The Sky
TTITLE5=Kim Sanders - Sunburned (Sun Goes Down Acoustic Mix)
TTITLE6=Alexi Murdoch - Breathe
TTITLE7=ATB and Armin Van Buuren - Vice Versa
TTITLE8=Lemongrass - Loving You
TTITLE9=Acoustique Parfum - Waiting
TTITLE10=Schwarz and Funk - Don't Look Back
TTITLE11=Quadron - Avalanche
TTITLE12=K D lang - The Air That I Breathe
TTITLE13=Rose - C'est donc rien
TTITLE14=Mayra Andrade - Storia, storia
TTITLE15=Shelby Lynne - I Only Want To Be With You
TTITLE16=Zero 7 - In The Waiting Line
TTITLE17=George Michael - Free
EXTD=
EXTT0=
EXTT1=
EXTT2=
EXTT3=
EXTT4=
EXTT5=
EXTT6=
EXTT7=
EXTT8=
EXTT9=
EXTT10=
EXTT11=
EXTT12=
EXTT13=
EXTT14=
EXTT15=
EXTT16=
EXTT17=
PLAYORDER=
